<svg width="32" height="32" viewBox="0 0 32 32" fill="none" xmlns="http://www.w3.org/2000/svg">
<path d="M2.7725 20.4253V17.7912H3.20057V21.0672H0V20.4253H2.7725Z" fill="white"/>
<path d="M0.250755 15.6882L1.06972 12.2951L1.48045 12.4418L0.810133 15.2191L1.72234 15.5449L2.32815 13.0349L2.73888 13.1817L2.13307 15.6916L3.0596 16.0226L3.74394 13.1872L4.15467 13.334L3.32168 16.7852L0.250755 15.6882Z" fill="white"/>
<path d="M1.77742 10.4458L3.34901 7.47076L3.70912 7.75231L2.42279 10.1873L3.22258 10.8126L4.38512 8.61194L4.74524 8.89349L3.5827 11.0942L4.39505 11.7293L5.70829 9.24334L6.06841 9.52489L4.46991 12.5508L1.77742 10.4458Z" fill="white"/>
<path d="M4.28915 6.1151L6.80955 3.45823L7.08987 3.8518L6.02905 4.97007L7.84465 7.51912L7.4459 7.93946L5.6303 5.39041L4.56948 6.50867L4.28915 6.1151Z" fill="white"/>
<path d="M10.6972 1.07334L10.8751 1.54705L8.79229 2.70419L9.21411 3.82787L11.066 2.79902L11.2438 3.27272L9.39194 4.30157L9.94403 5.77227L9.46409 6.03892L8.13452 2.49713L10.6972 1.07334Z" fill="white"/>
<path d="M12.3269 0.50328L15.2042 0L15.2651 0.515468L12.9101 0.927399L13.0454 2.07222L15.1738 1.69993L15.2347 2.2154L13.1063 2.58769L13.2437 3.75048L15.6481 3.32994L15.709 3.8454L12.7824 4.3573L12.3269 0.50328Z" fill="white"/>
<path d="M16.881 0.0149032L19.7583 0.518183L19.6974 1.03365L17.3423 0.62172L17.207 1.76654L19.3354 2.13883L19.2745 2.6543L17.1461 2.28201L17.0087 3.44481L19.413 3.86535L19.3521 4.38082L16.4255 3.86893L16.881 0.0149032Z" fill="white"/>
<path d="M22.7464 1.87538C23.2324 2.14538 23.5603 2.52061 23.7301 3.00109C23.9013 3.47788 23.8843 3.98986 23.6789 4.53701C23.4748 5.08049 23.168 5.43147 22.7583 5.58995C22.35 5.74477 21.9028 5.68717 21.4168 5.41717L19.7732 4.50404L21.1028 0.962244L22.7464 1.87538ZM21.5946 4.94346C21.9643 5.14439 22.2882 5.17566 22.5663 5.03727C22.8458 4.89521 23.0552 4.63874 23.1944 4.26785C23.346 3.86391 23.3732 3.49512 23.2759 3.16148C23.1786 2.82783 22.9429 2.55704 22.5686 2.34909L21.4049 1.7026L20.431 4.29697L21.5946 4.94346Z" fill="white"/>
<path d="M23.2002 6.51227L25.2961 3.56964L26.7068 5.05669C27.3438 5.72818 27.4732 6.32936 27.0951 6.86022C26.9126 7.1165 26.6559 7.17174 26.325 7.02596C26.5616 7.48903 26.5485 7.90514 26.2855 8.2743C26.103 8.53058 25.871 8.64664 25.5897 8.62247C25.3108 8.60094 25.0134 8.42363 24.6974 8.09053L23.2002 6.51227ZM24.9627 7.68109C25.3439 8.08293 25.6475 8.1252 25.8735 7.8079C25.9908 7.64315 26.0256 7.47414 25.9778 7.30086C25.9324 7.13023 25.8145 6.94446 25.6239 6.74354L24.5442 5.60545L23.8793 6.53904L24.9627 7.68109ZM25.4146 4.38355L24.8181 5.22103L25.8826 6.34326C26.2262 6.70544 26.4958 6.74924 26.6914 6.47466C26.8935 6.19092 26.8052 5.84946 26.4265 5.45026L25.4146 4.38355Z" fill="white"/>
<path d="M25.7423 9.16665L29.3283 8.75284L29.6431 9.34886L27.8306 13.1197L27.5265 12.5441L27.8831 11.819L26.7421 9.65909L26.0491 9.74738L25.7423 9.16665ZM28.1302 11.3235L29.1033 9.34622L27.2179 9.59659L28.1302 11.3235Z" fill="white"/>
<path d="M30.602 12.676C30.9908 12.9831 31.268 13.4794 31.4335 14.165C31.5129 14.4942 31.5506 14.8006 31.5463 15.084C31.543 15.3713 31.5148 15.598 31.4615 15.7643C31.4115 15.9295 31.3419 16.0784 31.2529 16.2112C31.1649 16.3478 31.0966 16.4374 31.0481 16.48C31.0005 16.5265 30.9574 16.5629 30.9188 16.5893L30.914 16.591L30.757 15.9403C30.771 15.9268 30.7889 15.9078 30.8106 15.8832C30.8365 15.8614 30.8744 15.8036 30.9245 15.71C30.9777 15.6153 31.0181 15.5104 31.0457 15.3954C31.0773 15.2831 31.0924 15.1304 31.0908 14.9375C31.0923 14.7434 31.0665 14.5359 31.0132 14.3151C30.8917 13.8116 30.686 13.4538 30.3962 13.2418C30.1105 13.0325 29.7973 12.9887 29.4566 13.1104C29.1223 13.2298 28.8808 13.4759 28.7322 13.8488C28.5835 14.2216 28.5686 14.654 28.6873 15.146C28.7406 15.3668 28.8094 15.5588 28.8938 15.7222C28.9782 15.8856 29.0603 16.0036 29.1401 16.0761C29.2207 16.1524 29.2972 16.2114 29.3695 16.2529C29.4459 16.2971 29.5071 16.3215 29.5532 16.3261L29.6223 16.333L29.7779 16.9779C29.741 16.9827 29.698 16.9833 29.6487 16.9799C29.6004 16.9803 29.5061 16.9551 29.3659 16.9042C29.2256 16.8533 29.0946 16.776 28.9727 16.6723C28.855 16.5713 28.7272 16.4002 28.5895 16.1591C28.4558 15.9208 28.3484 15.6331 28.267 15.2961C28.0988 14.5989 28.1088 13.9957 28.2972 13.4867C28.4888 12.9764 28.8234 12.636 29.301 12.4654C29.7754 12.296 30.209 12.3662 30.602 12.676Z" fill="white"/>
<path d="M28.7994 17.6444H32V18.2862H30.3275L32 20.66V21.4775L30.6063 19.5216L28.7994 21.7197V20.9143L30.2927 19.0795L29.7302 18.2862H28.7994V17.6444Z" fill="white"/>
<path d="M15.9644 5.68475C10.1811 5.68475 5.47602 11.1177 5.47602 17.7956C5.47602 24.4736 10.1811 29.9065 15.9644 29.9065C21.7478 29.9065 26.4529 24.4736 26.4529 17.7956C26.4529 11.1177 21.7478 5.68475 15.9644 5.68475ZM5.948 18.0648H10.2592C10.2788 19.9605 10.5044 21.7495 10.8908 23.336H7.16792C6.42208 21.7634 5.98599 19.97 5.948 18.0648ZM16.1975 11.7171V6.23593C17.9815 6.40925 19.5361 8.55961 20.4227 11.7171H16.1975ZM20.5656 12.2553C20.9558 13.8276 21.1837 15.6211 21.2035 17.5265H16.1975V12.2553H20.5656ZM15.7314 11.7171H11.5062C12.3928 8.55961 13.9474 6.40925 15.7314 6.23593V11.7171ZM15.7314 12.2553V17.5265H10.7254C10.7452 15.6213 10.9734 13.8278 11.3633 12.2553H15.7314ZM10.2592 17.5265H5.948C5.98599 15.6213 6.42208 13.8278 7.16769 12.2553H10.8908C10.5044 13.8418 10.2788 15.6308 10.2592 17.5265ZM10.7254 18.0648H15.7314V23.336H11.3633C10.9731 21.7634 10.7452 19.97 10.7254 18.0648ZM15.7314 23.8742V29.3554C13.9474 29.182 12.3928 27.0317 11.5062 23.8742H15.7314ZM16.1975 23.8742H20.4227C19.5361 27.0317 17.9815 29.182 16.1975 29.3554V23.8742ZM16.1975 23.336V18.0648H21.2035C21.1837 19.97 20.9555 21.7634 20.5656 23.336H16.1975ZM21.6695 18.0648H25.9807C25.9427 19.97 25.5066 21.7634 24.7607 23.336H21.0378C21.4243 21.7495 21.6499 19.9605 21.6695 18.0648ZM21.6695 17.5265C21.6499 15.6308 21.4243 13.8418 21.0378 12.2553H24.761C25.5068 13.8276 25.9429 15.6211 25.9807 17.5265H21.6695ZM24.488 11.7171H20.8987C20.24 9.31963 19.2054 7.44298 17.9666 6.45527C20.7145 7.10119 23.0565 9.0505 24.488 11.7171ZM13.9626 6.45527C12.7238 7.44298 11.6889 9.31963 11.0302 11.7171H7.44086C8.87241 9.0505 11.2141 7.10119 13.9626 6.45527ZM7.44086 23.8742H11.0302C11.6889 26.2717 12.7235 28.1483 13.9626 29.136C11.2141 28.4901 8.87241 26.5408 7.44086 23.8742ZM17.9663 29.136C19.2051 28.1483 20.2398 26.2717 20.8984 23.8742H24.4878C23.0565 26.5408 20.7145 28.4901 17.9663 29.136Z" fill="white"/>
<path d="M12.3911 31.3028C12.466 31.2255 12.5661 31.1868 12.6912 31.1868C12.8164 31.1868 12.9164 31.2255 12.9913 31.3028C13.0671 31.38 13.1051 31.4769 13.1051 31.5934C13.1051 31.7122 13.0676 31.8097 12.9927 31.8858C12.9178 31.9619 12.8173 32 12.6912 32C12.5661 32 12.4656 31.9614 12.3897 31.8841C12.3148 31.8068 12.2774 31.7099 12.2774 31.5934C12.2774 31.4769 12.3153 31.38 12.3911 31.3028ZM12.4992 31.7855C12.5466 31.8362 12.6106 31.8616 12.6912 31.8616C12.7708 31.8616 12.8344 31.8362 12.8818 31.7855C12.9301 31.7347 12.9543 31.6707 12.9543 31.5934C12.9543 31.515 12.9306 31.451 12.8832 31.4014C12.8358 31.3506 12.7718 31.3252 12.6912 31.3252C12.6097 31.3252 12.5452 31.3506 12.4978 31.4014C12.4513 31.451 12.4281 31.515 12.4281 31.5934C12.4281 31.6707 12.4518 31.7347 12.4992 31.7855Z" fill="white"/>
<path d="M13.2494 31.2041V31.0761C13.2494 30.9931 13.2627 30.9383 13.2892 30.9117C13.3167 30.8841 13.367 30.8702 13.44 30.8702H13.6504V31.019H13.44C13.422 31.019 13.4096 31.0231 13.403 31.0311C13.3973 31.0392 13.3945 31.0542 13.3945 31.0761V31.2041H13.6504V31.3512H13.3945V31.9827H13.2494V31.3512H13.1299V31.2041H13.2494Z" fill="white"/>
<path d="M14.2795 31.0104C14.38 30.9054 14.5142 30.8529 14.682 30.8529C14.7626 30.8529 14.8346 30.865 14.8982 30.8893C14.9626 30.9135 15.0115 30.9412 15.0446 30.9723C15.0778 31.0023 15.1058 31.0375 15.1285 31.0778C15.1522 31.1182 15.1669 31.1482 15.1726 31.1678C15.1793 31.1874 15.184 31.2047 15.1869 31.2197V31.2214H15.0276C15.0257 31.2157 15.0228 31.2082 15.019 31.199C15.0162 31.1886 15.0062 31.1713 14.9892 31.147C14.9721 31.1217 14.9517 31.0998 14.928 31.0813C14.9053 31.0617 14.8721 31.0444 14.8285 31.0294C14.7849 31.0132 14.736 31.0052 14.682 31.0052C14.5587 31.0052 14.4616 31.045 14.3904 31.1246C14.3203 31.203 14.2852 31.3039 14.2852 31.4273C14.2852 31.5484 14.3212 31.6488 14.3933 31.7284C14.4653 31.808 14.5616 31.8477 14.682 31.8477C14.736 31.8477 14.7849 31.8403 14.8285 31.8253C14.8721 31.8103 14.9053 31.7924 14.928 31.7716C14.9517 31.7509 14.9712 31.7301 14.9863 31.7093C15.0024 31.6874 15.0129 31.669 15.0176 31.654L15.0247 31.6315H15.1826C15.1807 31.6442 15.1774 31.6586 15.1726 31.6747C15.1688 31.6909 15.1556 31.7203 15.1328 31.763C15.1101 31.8056 15.0821 31.8431 15.0489 31.8754C15.0167 31.9066 14.9678 31.9354 14.9024 31.9619C14.838 31.9873 14.7645 32 14.682 32C14.5113 32 14.3762 31.9481 14.2767 31.8443C14.1771 31.7393 14.1273 31.6003 14.1273 31.4273C14.1273 31.2555 14.1781 31.1165 14.2795 31.0104Z" fill="white"/>
<path d="M15.2808 31.9827V30.8702H15.4287V31.346C15.4827 31.241 15.5676 31.188 15.6832 31.1868C15.6861 31.1868 15.6889 31.1868 15.6918 31.1868C15.9184 31.1868 16.0317 31.3149 16.0317 31.5709V31.9827H15.8852V31.5709C15.8852 31.4094 15.8141 31.3276 15.6719 31.3252C15.5932 31.3252 15.533 31.3512 15.4913 31.4031C15.4495 31.4539 15.4287 31.5248 15.4287 31.6159V31.9827H15.2808Z" fill="white"/>
<path d="M16.2157 31.2993C16.284 31.2243 16.3783 31.1868 16.4987 31.1868C16.6286 31.1868 16.7244 31.2278 16.786 31.3097C16.8486 31.3904 16.8799 31.4856 16.8799 31.5951C16.8799 31.6125 16.8794 31.6303 16.8785 31.6488H16.257C16.2627 31.7134 16.2868 31.7653 16.3295 31.8045C16.3731 31.8437 16.4305 31.8633 16.5016 31.8633C16.5357 31.8633 16.5665 31.8593 16.594 31.8512C16.6225 31.8431 16.6438 31.8333 16.658 31.8218C16.6732 31.8103 16.6855 31.7987 16.695 31.7872C16.7054 31.7745 16.7121 31.7641 16.7149 31.7561L16.7192 31.7439H16.8685C16.8676 31.7509 16.8652 31.7601 16.8614 31.7716C16.8585 31.7832 16.8486 31.8039 16.8315 31.8339C16.8145 31.8627 16.7936 31.8887 16.7689 31.9118C16.7452 31.9337 16.7092 31.9539 16.6609 31.9723C16.6135 31.9908 16.5599 32 16.5002 32C16.3826 32 16.2883 31.9637 16.2172 31.891C16.147 31.8172 16.1119 31.7186 16.1119 31.5951C16.1119 31.474 16.1465 31.3754 16.2157 31.2993ZM16.7362 31.5242C16.7362 31.4665 16.7149 31.4187 16.6722 31.3806C16.6296 31.3426 16.5722 31.3235 16.5002 31.3235C16.4281 31.3235 16.3712 31.3431 16.3295 31.3823C16.2878 31.4216 16.2636 31.4688 16.257 31.5242H16.7362Z" fill="white"/>
<path d="M16.9667 31.9827V31.2041H17.1075V31.3599C17.1578 31.2457 17.2445 31.188 17.3678 31.1868C17.3706 31.1868 17.3735 31.1868 17.3763 31.1868C17.6039 31.1868 17.7176 31.3149 17.7176 31.5709V31.9827H17.5697V31.5709C17.5697 31.4094 17.4991 31.3276 17.3578 31.3252C17.2782 31.3252 17.2175 31.3506 17.1758 31.4014C17.135 31.4521 17.1146 31.5236 17.1146 31.6159V31.9827H16.9667Z" fill="white"/>
<path d="M17.825 31.9827V31.2041H17.9658V31.3599C18.0161 31.2457 18.1028 31.188 18.2261 31.1868C18.2289 31.1868 18.2318 31.1868 18.2346 31.1868C18.4622 31.1868 18.5759 31.3149 18.5759 31.5709V31.9827H18.428V31.5709C18.428 31.4094 18.3574 31.3276 18.2161 31.3252C18.1365 31.3252 18.0758 31.3506 18.0341 31.4014C17.9933 31.4521 17.9729 31.5236 17.9729 31.6159V31.9827H17.825Z" fill="white"/>
<path d="M18.6776 31.7024C18.6871 31.6805 18.699 31.6615 18.7132 31.6453C18.7284 31.628 18.7478 31.6125 18.7715 31.5986C18.7962 31.5836 18.8194 31.5715 18.8412 31.5623C18.863 31.5519 18.8895 31.5427 18.9208 31.5346C18.9521 31.5265 18.9787 31.5202 19.0005 31.5156C19.0223 31.511 19.0493 31.5069 19.0815 31.5035C19.1138 31.4988 19.1375 31.496 19.1526 31.4948C19.1688 31.4936 19.1896 31.4925 19.2152 31.4913C19.2408 31.489 19.255 31.4879 19.2579 31.4879V31.4862C19.2579 31.3731 19.1887 31.3166 19.0502 31.3166C19.0152 31.3166 18.9844 31.3206 18.9578 31.3287C18.9313 31.3368 18.9118 31.3466 18.8995 31.3581C18.8872 31.3685 18.8772 31.3795 18.8696 31.391C18.8621 31.4014 18.8573 31.4106 18.8554 31.4187L18.854 31.4308H18.7018C18.7028 31.4216 18.7047 31.4112 18.7075 31.3996C18.7104 31.387 18.7189 31.3673 18.7331 31.3408C18.7483 31.3131 18.7672 31.2889 18.79 31.2682C18.8127 31.2474 18.8469 31.2289 18.8924 31.2128C18.9388 31.1955 18.9919 31.1868 19.0517 31.1868C19.1654 31.1868 19.2522 31.2128 19.3119 31.2647C19.3726 31.3154 19.4029 31.3887 19.4029 31.4844V31.7803C19.4029 31.801 19.4053 31.8155 19.4101 31.8235C19.4157 31.8304 19.4262 31.8339 19.4413 31.8339H19.484V31.9827H19.4413C19.3816 31.9827 19.3385 31.9735 19.3119 31.955C19.2854 31.9354 19.2688 31.9008 19.2622 31.8512C19.192 31.9504 19.0834 32 18.9365 32C18.8445 32 18.7758 31.9798 18.7303 31.9394C18.6848 31.8979 18.662 31.8437 18.662 31.7768C18.662 31.7503 18.6672 31.7255 18.6776 31.7024ZM18.8568 31.8443C18.8834 31.8604 18.9175 31.8691 18.9592 31.8702C18.9611 31.8702 18.963 31.8702 18.9649 31.8702C19.0341 31.8702 19.1 31.8512 19.1626 31.8131C19.2252 31.7751 19.2569 31.7238 19.2579 31.6592V31.6021C18.9659 31.6182 18.8189 31.6759 18.817 31.7751C18.817 31.7762 18.817 31.7774 18.817 31.7785C18.817 31.8062 18.8303 31.8281 18.8568 31.8443Z" fill="white"/>
<path d="M19.7401 31.2041V31.9827H19.5936V31.2041H19.7401ZM19.5709 30.9654C19.5709 30.9331 19.5799 30.9054 19.5979 30.8823C19.6168 30.8593 19.6391 30.8477 19.6647 30.8477C19.6922 30.8477 19.715 30.8593 19.733 30.8823C19.7519 30.9054 19.7614 30.9331 19.7614 30.9654C19.7614 30.9965 19.7519 31.0231 19.733 31.045C19.714 31.0669 19.6913 31.0778 19.6647 31.0778C19.6391 31.0778 19.6168 31.0669 19.5979 31.045C19.5799 31.0231 19.5709 30.9965 19.5709 30.9654Z" fill="white"/>
</svg>
