<svg width="16" height="16" viewBox="0 0 16 16" fill="none" xmlns="http://www.w3.org/2000/svg">
<path d="M1.38625 10.2126V8.89558H1.60028V10.5336H0V10.2126H1.38625Z" fill="black"/>
<path d="M0.125377 7.84412L0.534861 6.14755L0.740226 6.22091L0.405066 7.60954L0.861168 7.77246L1.16407 6.51747L1.36944 6.59083L1.06653 7.84582L1.5298 8.0113L1.87197 6.59362L2.07733 6.66698L1.66084 8.3926L0.125377 7.84412Z" fill="black"/>
<path d="M0.88871 5.22288L1.6745 3.73538L1.85456 3.87615L1.21139 5.09366L1.61129 5.40631L2.19256 4.30597L2.37262 4.44674L1.79135 5.54709L2.19752 5.86465L2.85415 4.62167L3.0342 4.76244L2.23496 6.27541L0.88871 5.22288Z" fill="black"/>
<path d="M2.14457 3.05755L3.40477 1.72912L3.54494 1.9259L3.01452 2.48503L3.92233 3.75956L3.72295 3.96973L2.81515 2.6952L2.28474 3.25434L2.14457 3.05755Z" fill="black"/>
<path d="M5.34861 0.536669L5.43753 0.773523L4.39615 1.35209L4.60706 1.91393L5.53298 1.39951L5.62189 1.63636L4.69597 2.15079L4.97201 2.88614L4.73204 3.01946L4.06726 1.24856L5.34861 0.536669Z" fill="black"/>
<path d="M6.16346 0.25164L7.60211 0L7.63257 0.257734L6.45504 0.463699L6.52269 1.03611L7.5869 0.849964L7.61736 1.1077L6.55315 1.29384L6.62187 1.87524L7.82403 1.66497L7.85449 1.9227L6.3912 2.17865L6.16346 0.25164Z" fill="black"/>
<path d="M8.44049 0.00745162L9.87915 0.259091L9.84869 0.516825L8.67116 0.31086L8.60351 0.883269L9.66772 1.06941L9.63726 1.32715L8.57305 1.141L8.50433 1.7224L9.7065 1.93268L9.67604 2.19041L8.21275 1.93446L8.44049 0.00745162Z" fill="black"/>
<path d="M11.3732 0.93769C11.6162 1.07269 11.7801 1.26031 11.8651 1.50054C11.9507 1.73894 11.9421 1.99493 11.8394 2.2685C11.7374 2.54024 11.584 2.71573 11.3791 2.79498C11.175 2.87238 10.9514 2.84359 10.7084 2.70859L9.88662 2.25202L10.5514 0.481122L11.3732 0.93769ZM10.7973 2.47173C10.9821 2.57219 11.1441 2.58783 11.2831 2.51863C11.4229 2.4476 11.5276 2.31937 11.5972 2.13392C11.673 1.93196 11.6866 1.74756 11.638 1.58074C11.5893 1.41392 11.4714 1.27852 11.2843 1.17454L10.7025 0.851299L10.2155 2.14849L10.7973 2.47173Z" fill="black"/>
<path d="M11.6001 3.25613L12.6481 1.78482L13.3534 2.52835C13.6719 2.86409 13.7366 3.16468 13.5476 3.43011C13.4563 3.55825 13.3279 3.58587 13.1625 3.51298C13.2808 3.74451 13.2742 3.95257 13.1428 4.13715C13.0515 4.26529 12.9355 4.32332 12.7948 4.31123C12.6554 4.30047 12.5067 4.21181 12.3487 4.04526L11.6001 3.25613ZM12.4813 3.84055C12.6719 4.04146 12.8237 4.0626 12.9367 3.90395C12.9954 3.82158 13.0128 3.73707 12.9889 3.65043C12.9662 3.56512 12.9072 3.47223 12.8119 3.37177L12.2721 2.80273L11.9396 3.26952L12.4813 3.84055ZM12.7073 2.19178L12.409 2.61052L12.9413 3.17163C13.1131 3.35272 13.2479 3.37462 13.3457 3.23733C13.4467 3.09546 13.4026 2.92473 13.2132 2.72513L12.7073 2.19178Z" fill="black"/>
<path d="M12.8712 4.58332L14.6641 4.37642L14.8216 4.67443L13.9153 6.55986L13.7633 6.27204L13.9416 5.90951L13.371 4.82954L13.0246 4.87369L12.8712 4.58332ZM14.0651 5.66175L14.5517 4.67311L13.609 4.79829L14.0651 5.66175Z" fill="black"/>
<path d="M15.301 6.33799C15.4954 6.49153 15.634 6.7397 15.7167 7.0825C15.7565 7.24712 15.7753 7.40029 15.7732 7.54199C15.7715 7.68563 15.7574 7.79902 15.7308 7.88216C15.7057 7.96473 15.671 8.0392 15.6265 8.10559C15.5824 8.17391 15.5483 8.21872 15.524 8.24C15.5002 8.26323 15.4787 8.28144 15.4594 8.29464L15.457 8.2955L15.3785 7.97013C15.3855 7.96341 15.3945 7.95391 15.4053 7.94161C15.4182 7.93068 15.4372 7.90181 15.4622 7.85501C15.4888 7.80764 15.509 7.7552 15.5228 7.69768C15.5387 7.64153 15.5462 7.56521 15.5454 7.46873C15.5462 7.37168 15.5332 7.26796 15.5066 7.15757C15.4458 6.90579 15.343 6.7269 15.1981 6.62088C15.0552 6.51624 14.8986 6.49434 14.7283 6.55518C14.5612 6.6149 14.4404 6.73796 14.3661 6.92439C14.2918 7.11082 14.2843 7.32702 14.3437 7.57298C14.3703 7.68338 14.4047 7.77942 14.4469 7.86112C14.4891 7.94281 14.5302 8.00178 14.57 8.03803C14.6104 8.07621 14.6486 8.10568 14.6847 8.12643C14.7229 8.14855 14.7536 8.16075 14.7766 8.16304L14.8111 8.16648L14.889 8.48895C14.8705 8.49133 14.849 8.49166 14.8244 8.48993C14.8002 8.49015 14.7531 8.47754 14.6829 8.4521C14.6128 8.42666 14.5473 8.388 14.4864 8.33614C14.4275 8.28565 14.3636 8.20012 14.2947 8.07957C14.2279 7.96038 14.1742 7.81654 14.1335 7.64805C14.0494 7.29944 14.0544 6.99787 14.1486 6.74333C14.2444 6.48822 14.4117 6.31802 14.6505 6.23272C14.8877 6.14799 15.1045 6.18308 15.301 6.33799Z" fill="black"/>
<path d="M14.3997 8.82218H16V9.14312H15.1638L16 10.33V10.7387L15.3031 9.76078L14.3997 10.8598V10.4572L15.1464 9.53975L14.8651 9.14312H14.3997V8.82218Z" fill="black"/>
<path d="M7.98222 2.84237C5.09056 2.84237 2.73801 5.55885 2.73801 8.89782C2.73801 12.2368 5.09056 14.9533 7.98222 14.9533C10.8739 14.9533 13.2264 12.2368 13.2264 8.89782C13.2264 5.55885 10.8739 2.84237 7.98222 2.84237ZM2.974 9.03239H5.12961C5.13939 9.98027 5.2522 10.8747 5.44542 11.668H3.58396C3.21104 10.8817 2.993 9.98498 2.974 9.03239ZM8.09876 5.85853V3.11797C8.99074 3.20463 9.76805 4.2798 10.2114 5.85853H8.09876ZM10.2828 6.12766C10.4779 6.91379 10.5919 7.81053 10.6018 8.76326H8.09876V6.12766H10.2828ZM7.86568 5.85853H5.75308C6.19639 4.2798 6.9737 3.20463 7.86568 3.11797V5.85853ZM7.86568 6.12766V8.76326H5.36268C5.37259 7.81067 5.48668 6.91392 5.68165 6.12766H7.86568ZM5.12961 8.76326H2.974C2.993 7.81067 3.21104 6.91392 3.58384 6.12766H5.44542C5.2522 6.92092 5.13939 7.81538 5.12961 8.76326ZM5.36268 9.03239H7.86568V11.668H5.68165C5.48656 10.8817 5.37259 9.98498 5.36268 9.03239ZM7.86568 11.9371V14.6777C6.9737 14.591 6.19639 13.5158 5.75308 11.9371H7.86568ZM8.09876 11.9371H10.2114C9.76805 13.5158 8.99074 14.591 8.09876 14.6777V11.9371ZM8.09876 11.668V9.03239H10.6018C10.5919 9.98498 10.4778 10.8817 10.2828 11.668H8.09876ZM10.8347 9.03239H12.9903C12.9713 9.98498 12.7533 10.8817 12.3804 11.668H10.5189C10.7121 10.8747 10.8249 9.98027 10.8347 9.03239ZM10.8347 8.76326C10.8249 7.81538 10.7121 6.92092 10.5189 6.12766H12.3805C12.7534 6.91379 12.9714 7.81053 12.9903 8.76326H10.8347ZM12.244 5.85853H10.4493C10.12 4.65982 9.60268 3.72149 8.98328 3.22764C10.3573 3.55059 11.5282 4.52525 12.244 5.85853ZM6.98128 3.22764C6.36188 3.72149 5.84445 4.65982 5.51511 5.85853H3.72043C4.4362 4.52525 5.60706 3.55059 6.98128 3.22764ZM3.72043 11.9371H5.51511C5.84445 13.1358 6.36176 14.0742 6.98128 14.568C5.60706 14.2451 4.4362 13.2704 3.72043 11.9371ZM8.98317 14.568C9.60257 14.0742 10.1199 13.1358 10.4492 11.9371H12.2439C11.5282 13.2704 10.3573 14.2451 8.98317 14.568Z" fill="black"/>
<path d="M6.19557 15.6514C6.23302 15.6127 6.28303 15.5934 6.3456 15.5934C6.40818 15.5934 6.45819 15.6127 6.49564 15.6514C6.53357 15.69 6.55253 15.7385 6.55253 15.7967C6.55253 15.8561 6.5338 15.9048 6.49635 15.9429C6.4589 15.981 6.40865 16 6.3456 16C6.28303 16 6.23278 15.9807 6.19486 15.942C6.15741 15.9034 6.13868 15.855 6.13868 15.7967C6.13868 15.7385 6.15764 15.69 6.19557 15.6514ZM6.24961 15.8927C6.27331 15.9181 6.30531 15.9308 6.3456 15.9308C6.38542 15.9308 6.41719 15.9181 6.44089 15.8927C6.46507 15.8674 6.47715 15.8353 6.47715 15.7967C6.47715 15.7575 6.4653 15.7255 6.4416 15.7007C6.4179 15.6753 6.3859 15.6626 6.3456 15.6626C6.30484 15.6626 6.2726 15.6753 6.2489 15.7007C6.22567 15.7255 6.21405 15.7575 6.21405 15.7967C6.21405 15.8353 6.22591 15.8674 6.24961 15.8927Z" fill="black"/>
<path d="M6.6247 15.6021V15.5381C6.6247 15.4965 6.63133 15.4691 6.64461 15.4559C6.65836 15.442 6.68348 15.4351 6.71998 15.4351H6.82522V15.5095H6.71998C6.71098 15.5095 6.70481 15.5115 6.70149 15.5156C6.69865 15.5196 6.69723 15.5271 6.69723 15.5381V15.6021H6.82522V15.6756H6.69723V15.9913H6.6247V15.6756H6.56497V15.6021H6.6247Z" fill="black"/>
<path d="M7.13976 15.5052C7.19001 15.4527 7.25709 15.4265 7.34099 15.4265C7.38129 15.4265 7.41732 15.4325 7.44908 15.4446C7.48131 15.4567 7.50573 15.4706 7.52232 15.4862C7.53891 15.5011 7.5529 15.5187 7.56427 15.5389C7.57612 15.5591 7.58347 15.5741 7.58632 15.5839C7.58963 15.5937 7.592 15.6024 7.59343 15.6099V15.6107H7.51379C7.51284 15.6078 7.51142 15.6041 7.50952 15.5995C7.5081 15.5943 7.50312 15.5856 7.49459 15.5735C7.48605 15.5608 7.47586 15.5499 7.46401 15.5407C7.45263 15.5308 7.43604 15.5222 7.41423 15.5147C7.39243 15.5066 7.36801 15.5026 7.34099 15.5026C7.27937 15.5026 7.23078 15.5225 7.19522 15.5623C7.16014 15.6015 7.1426 15.652 7.1426 15.7137C7.1426 15.7742 7.16062 15.8244 7.19664 15.8642C7.23267 15.904 7.28079 15.9239 7.34099 15.9239C7.36801 15.9239 7.39243 15.9201 7.41423 15.9126C7.43604 15.9051 7.45263 15.8962 7.46401 15.8858C7.47586 15.8754 7.48558 15.8651 7.49316 15.8547C7.50122 15.8437 7.50644 15.8345 7.50881 15.827L7.51236 15.8157H7.59129C7.59035 15.8221 7.58869 15.8293 7.58632 15.8374C7.58442 15.8454 7.57778 15.8601 7.56641 15.8815C7.55503 15.9028 7.54104 15.9216 7.52445 15.9377C7.50833 15.9533 7.48392 15.9677 7.45121 15.981C7.41898 15.9937 7.38224 16 7.34099 16C7.25566 16 7.18811 15.974 7.13834 15.9221C7.08856 15.8697 7.06367 15.8002 7.06367 15.7137C7.06367 15.6277 7.08903 15.5582 7.13976 15.5052Z" fill="black"/>
<path d="M7.64039 15.9913V15.4351H7.71434V15.673C7.74136 15.6205 7.78379 15.594 7.84162 15.5934C7.84304 15.5934 7.84447 15.5934 7.84589 15.5934C7.95919 15.5934 8.01584 15.6574 8.01584 15.7855V15.9913H7.94259V15.7855C7.94259 15.7047 7.90704 15.6638 7.83593 15.6626C7.79659 15.6626 7.76648 15.6756 7.74563 15.7016C7.72477 15.7269 7.71434 15.7624 7.71434 15.808V15.9913H7.64039Z" fill="black"/>
<path d="M8.10786 15.6496C8.142 15.6122 8.18917 15.5934 8.24937 15.5934C8.31432 15.5934 8.36219 15.6139 8.39301 15.6548C8.4243 15.6952 8.43994 15.7428 8.43994 15.7976C8.43994 15.8062 8.4397 15.8152 8.43923 15.8244H8.12849C8.13133 15.8567 8.14342 15.8826 8.16475 15.9022C8.18656 15.9219 8.21524 15.9317 8.25079 15.9317C8.26786 15.9317 8.28326 15.9296 8.29701 15.9256C8.31123 15.9216 8.3219 15.9167 8.32901 15.9109C8.3366 15.9051 8.34276 15.8994 8.3475 15.8936C8.35271 15.8873 8.35603 15.8821 8.35745 15.878L8.35959 15.872H8.43425C8.43378 15.8754 8.43259 15.88 8.43069 15.8858C8.42927 15.8916 8.4243 15.902 8.41576 15.917C8.40723 15.9314 8.3968 15.9443 8.38447 15.9559C8.37262 15.9668 8.35461 15.9769 8.33043 15.9862C8.30673 15.9954 8.27995 16 8.25008 16C8.1913 16 8.14413 15.9818 8.10858 15.9455C8.0735 15.9086 8.05596 15.8593 8.05596 15.7976C8.05596 15.737 8.07326 15.6877 8.10786 15.6496ZM8.36812 15.7621C8.36812 15.7333 8.35745 15.7093 8.33612 15.6903C8.31479 15.6713 8.28611 15.6618 8.25008 15.6618C8.21405 15.6618 8.18561 15.6716 8.16475 15.6912C8.14389 15.7108 8.1318 15.7344 8.12849 15.7621H8.36812Z" fill="black"/>
<path d="M8.48337 15.9913V15.6021H8.55377V15.6799C8.57889 15.6228 8.62227 15.594 8.6839 15.5934C8.68532 15.5934 8.68674 15.5934 8.68816 15.5934C8.80193 15.5934 8.85882 15.6574 8.85882 15.7855V15.9913H8.78487V15.7855C8.78487 15.7047 8.74955 15.6638 8.67892 15.6626C8.6391 15.6626 8.60876 15.6753 8.5879 15.7007C8.56752 15.7261 8.55732 15.7618 8.55732 15.808V15.9913H8.48337Z" fill="black"/>
<path d="M8.91252 15.9913V15.6021H8.98291V15.6799C9.00804 15.6228 9.05142 15.594 9.11304 15.5934C9.11446 15.5934 9.11589 15.5934 9.11731 15.5934C9.23108 15.5934 9.28797 15.6574 9.28797 15.7855V15.9913H9.21402V15.7855C9.21402 15.7047 9.1787 15.6638 9.10806 15.6626C9.06824 15.6626 9.03791 15.6753 9.01705 15.7007C8.99666 15.7261 8.98647 15.7618 8.98647 15.808V15.9913H8.91252Z" fill="black"/>
<path d="M9.33882 15.8512C9.34356 15.8403 9.34949 15.8307 9.3566 15.8227C9.36418 15.814 9.3739 15.8062 9.38575 15.7993C9.39808 15.7918 9.40969 15.7858 9.4206 15.7811C9.4315 15.7759 9.44477 15.7713 9.46042 15.7673C9.47606 15.7633 9.48933 15.7601 9.50024 15.7578C9.51114 15.7555 9.52465 15.7535 9.54077 15.7517C9.55689 15.7494 9.56874 15.748 9.57632 15.7474C9.58438 15.7468 9.59481 15.7462 9.60761 15.7457C9.62041 15.7445 9.62752 15.7439 9.62894 15.7439V15.7431C9.62894 15.6866 9.59434 15.6583 9.52512 15.6583C9.50758 15.6583 9.49218 15.6603 9.4789 15.6644C9.46563 15.6684 9.45591 15.6733 9.44975 15.6791C9.44359 15.6843 9.43861 15.6897 9.43482 15.6955C9.43103 15.7007 9.42865 15.7053 9.42771 15.7093L9.427 15.7154H9.35091C9.35138 15.7108 9.35233 15.7056 9.35375 15.6998C9.35518 15.6935 9.35944 15.6837 9.36655 15.6704C9.37414 15.6566 9.38362 15.6445 9.395 15.6341C9.40637 15.6237 9.42344 15.6145 9.44619 15.6064C9.46942 15.5977 9.49597 15.5934 9.52584 15.5934C9.58272 15.5934 9.6261 15.6064 9.65596 15.6323C9.6863 15.6577 9.70147 15.6943 9.70147 15.7422V15.8901C9.70147 15.9005 9.70266 15.9077 9.70503 15.9118C9.70787 15.9152 9.71309 15.917 9.72067 15.917H9.742V15.9913H9.72067C9.69081 15.9913 9.66924 15.9867 9.65596 15.9775C9.64269 15.9677 9.63439 15.9504 9.63108 15.9256C9.596 15.9752 9.54172 16 9.46824 16C9.42226 16 9.38789 15.9899 9.36513 15.9697C9.34238 15.949 9.331 15.9219 9.331 15.8884C9.331 15.8751 9.33361 15.8627 9.33882 15.8512ZM9.42842 15.9221C9.44169 15.9302 9.45876 15.9345 9.47961 15.9351C9.48056 15.9351 9.48151 15.9351 9.48246 15.9351C9.51707 15.9351 9.55001 15.9256 9.5813 15.9066C9.61259 15.8875 9.62847 15.8619 9.62894 15.8296V15.801C9.48293 15.8091 9.40946 15.8379 9.40851 15.8875C9.40851 15.8881 9.40851 15.8887 9.40851 15.8893C9.40851 15.9031 9.41514 15.9141 9.42842 15.9221Z" fill="black"/>
<path d="M9.87005 15.6021V15.9913H9.79681V15.6021H9.87005ZM9.78543 15.4827C9.78543 15.4665 9.78993 15.4527 9.79894 15.4412C9.80842 15.4296 9.81956 15.4239 9.83236 15.4239C9.84611 15.4239 9.85749 15.4296 9.86649 15.4412C9.87597 15.4527 9.88071 15.4665 9.88071 15.4827C9.88071 15.4983 9.87597 15.5115 9.86649 15.5225C9.85701 15.5334 9.84563 15.5389 9.83236 15.5389C9.81956 15.5389 9.80842 15.5334 9.79894 15.5225C9.78993 15.5115 9.78543 15.4983 9.78543 15.4827Z" fill="black"/>
</svg>
