<svg xmlns="http://www.w3.org/2000/svg" viewBox="0 0 512 512" shape-rendering="geometricPrecision">
  <!-- White background rounded rectangle -->
  <path fill="#FFFFFF" d="M115.612 0h280.775C459.974 0 512 52.026 512 115.612v280.775c0 63.587-52.026 115.612-115.613 115.612H115.612C52.026 512 0 459.974 0 396.387V115.612C0 52.026 52.026 0 115.612 0z"/>
  
  <!-- Central starburst design with pastel yellow -->
  <g transform="translate(256,256)" fill="#FFE5B4">
    <ellipse rx="8" ry="75" transform="rotate(0)"/>
    <ellipse rx="8" ry="75" transform="rotate(30)"/>
    <ellipse rx="8" ry="75" transform="rotate(60)"/>
    <ellipse rx="8" ry="75" transform="rotate(90)"/>
    <ellipse rx="8" ry="75" transform="rotate(120)"/>
    <ellipse rx="8" ry="75" transform="rotate(150)"/>
    <ellipse rx="8" ry="75" transform="rotate(180)"/>
    <ellipse rx="8" ry="75" transform="rotate(210)"/>
    <ellipse rx="8" ry="75" transform="rotate(240)"/>
    <ellipse rx="8" ry="75" transform="rotate(270)"/>
    <ellipse rx="8" ry="75" transform="rotate(300)"/>
    <ellipse rx="8" ry="75" transform="rotate(330)"/>
    <circle r="20" fill="#FFE5B4"/>
  </g>
</svg>