<svg width="42" height="34" viewBox="0 0 42 34" fill="none" xmlns="http://www.w3.org/2000/svg">
<path d="M3.63891 21.7019V18.9031H4.20075V22.3839H0V21.7019H3.63891Z" fill="black"/>
<path d="M0.329116 16.6687L1.40401 13.0635L1.94309 13.2194L1.0633 16.1703L2.26057 16.5165L3.05569 13.8496L3.59478 14.0055L2.79965 16.6724L4.01572 17.024L4.91392 14.0115L5.453 14.1673L4.3597 17.8343L0.329116 16.6687Z" fill="black"/>
<path d="M2.33286 11.0986L4.39557 7.93768L4.86822 8.23683L3.17991 10.824L4.22964 11.4884L5.75547 9.15019L6.22812 9.44933L4.70229 11.7876L5.7685 12.4624L7.49213 9.82105L7.96478 10.1202L5.86676 13.3352L2.33286 11.0986Z" fill="black"/>
<path d="M5.62951 6.4973L8.93753 3.67437L9.30546 4.09254L7.91313 5.2807L10.2961 7.98907L9.77275 8.43568L7.38977 5.72731L5.99744 6.91546L5.62951 6.4973Z" fill="black"/>
<path d="M14.0401 1.14042L14.2735 1.64374L11.5399 2.8732L12.0935 4.06711L14.5241 2.97396L14.7575 3.47727L12.3269 4.57042L13.0515 6.13304L12.4216 6.41635L10.6766 2.6532L14.0401 1.14042Z" fill="black"/>
<path d="M16.1791 0.534735L19.9555 0L20.0355 0.547684L16.9445 0.985361L17.1221 2.20173L19.9156 1.80617L19.9956 2.35386L17.202 2.74942L17.3824 3.98489L20.5381 3.53806L20.618 4.08574L16.7769 4.62963L16.1791 0.534735Z" fill="black"/>
<path d="M22.1563 0.0158347L25.9328 0.550569L25.8528 1.09825L22.7618 0.660577L22.5842 1.87695L25.3778 2.2725L25.2978 2.82019L22.5043 2.42463L22.3239 3.66011L25.4796 4.10694L25.3996 4.65462L21.5585 4.11073L22.1563 0.0158347Z" fill="black"/>
<path d="M29.8546 1.99259C30.4925 2.27947 30.9229 2.67815 31.1458 3.18865C31.3705 3.69525 31.3481 4.23923 31.0785 4.82057C30.8107 5.39802 30.408 5.77094 29.8702 5.93933C29.3343 6.10381 28.7474 6.04262 28.1096 5.75575L25.9524 4.78554L27.6974 1.02238L29.8546 1.99259ZM28.343 5.25243C28.8281 5.46591 29.2532 5.49913 29.6183 5.3521C29.9851 5.20116 30.2599 4.92866 30.4426 4.53459C30.6417 4.10541 30.6773 3.71357 30.5497 3.35907C30.422 3.00457 30.1125 2.71685 29.6212 2.49591L28.094 1.80901L26.8157 4.56554L28.343 5.25243Z" fill="black"/>
<path d="M30.4503 6.91928L33.2012 3.79274L35.0527 5.37274C35.8887 6.08619 36.0586 6.72494 35.5624 7.28898C35.3228 7.56128 34.9859 7.61998 34.5516 7.46508C34.8621 7.95709 34.8449 8.39921 34.4997 8.79145C34.2602 9.06375 33.9557 9.18705 33.5864 9.16137C33.2204 9.1385 32.8301 8.9501 32.4153 8.59619L30.4503 6.91928ZM32.7635 8.16116C33.2638 8.58811 33.6623 8.63302 33.9589 8.29589C34.113 8.12085 34.1586 7.94127 34.0958 7.75717C34.0363 7.57587 33.8815 7.37849 33.6313 7.16501L32.2143 5.95579L31.3416 6.94773L32.7635 8.16116ZM33.3566 4.65752L32.5737 5.54735L33.971 6.73972C34.4219 7.12453 34.7757 7.17107 35.0324 6.87932C35.2977 6.57785 35.1818 6.21505 34.6848 5.79091L33.3566 4.65752Z" fill="black"/>
<path d="M33.7868 9.73956L38.4934 9.2999L38.9066 9.93316L36.5277 13.9397L36.1286 13.3281L36.5966 12.5577L35.099 10.2628L34.1895 10.3566L33.7868 9.73956ZM36.9209 12.0312L38.1981 9.93036L35.7235 10.1964L36.9209 12.0312Z" fill="black"/>
<path d="M40.1651 13.4682C40.6755 13.7945 41.0393 14.3219 41.2564 15.0503C41.3607 15.4001 41.4101 15.7256 41.4046 16.0267C41.4003 16.332 41.3631 16.5729 41.2933 16.7496C41.2276 16.925 41.1363 17.0833 41.0195 17.2244C40.9039 17.3696 40.8143 17.4648 40.7506 17.51C40.6881 17.5594 40.6316 17.5981 40.5809 17.6261L40.5747 17.6279L40.3685 16.9365C40.387 16.9223 40.4105 16.902 40.439 16.8759C40.4729 16.8527 40.5227 16.7914 40.5884 16.6919C40.6582 16.5912 40.7112 16.4798 40.7474 16.3576C40.789 16.2383 40.8088 16.0761 40.8066 15.8711C40.8087 15.6648 40.7748 15.4444 40.7048 15.2098C40.5453 14.6748 40.2754 14.2947 39.895 14.0694C39.52 13.847 39.109 13.8005 38.6618 13.9298C38.223 14.0567 37.9061 14.3182 37.711 14.7143C37.5159 15.1105 37.4963 15.5699 37.6521 16.0926C37.722 16.3272 37.8124 16.5313 37.9232 16.7049C38.0339 16.8785 38.1417 17.0038 38.2463 17.0808C38.3522 17.1619 38.4526 17.2246 38.5475 17.2687C38.6477 17.3157 38.7281 17.3416 38.7885 17.3465L38.8792 17.3538L39.0835 18.039C39.0351 18.0441 38.9786 18.0448 38.9139 18.0411C38.8505 18.0416 38.7268 18.0148 38.5427 17.9607C38.3586 17.9066 38.1866 17.8245 38.0267 17.7143C37.8721 17.607 37.7045 17.4253 37.5237 17.1691C37.3483 16.9158 37.2072 16.6102 37.1005 16.2521C36.8796 15.5113 36.8928 14.8705 37.1401 14.3296C37.3915 13.7875 37.8307 13.4258 38.4575 13.2445C39.0802 13.0645 39.6494 13.139 40.1651 13.4682Z" fill="black"/>
<path d="M37.7993 18.7471H42V19.4291H39.8049L42 21.9512V22.8198L40.1708 20.7417L37.7993 23.0772V22.2215L39.7592 20.272L39.0209 19.4291H37.7993V18.7471Z" fill="black"/>
<path d="M20.9533 6.04005C13.3627 6.04005 7.18728 11.8126 7.18728 18.9079C7.18728 26.0032 13.3627 31.7757 20.9533 31.7757C28.5439 31.7757 34.7194 26.0032 34.7194 18.9079C34.7194 11.8126 28.5439 6.04005 20.9533 6.04005ZM7.80675 19.1938H13.4652C13.4909 21.2081 13.787 23.1088 14.2942 24.7945H9.4079C8.42898 23.1237 7.85662 21.2181 7.80675 19.1938ZM21.2592 12.4494V6.62568C23.6007 6.80983 25.6411 9.09458 26.8048 12.4494H21.2592ZM26.9923 13.0213C27.5044 14.6918 27.8036 16.5974 27.8296 18.6219H21.2592V13.0213H26.9923ZM20.6474 12.4494H15.1018C16.2655 9.09458 18.306 6.80983 20.6474 6.62568V12.4494ZM20.6474 13.0213V18.6219H14.077C14.103 16.5977 14.4025 14.6921 14.9143 13.0213H20.6474ZM13.4652 18.6219H7.80675C7.85662 16.5977 8.42898 14.6921 9.40759 13.0213H14.2942C13.787 14.707 13.4909 16.6077 13.4652 18.6219ZM14.077 19.1938H20.6474V24.7945H14.9143C14.4022 23.1237 14.103 21.2181 14.077 19.1938ZM20.6474 25.3664V31.1901C18.306 31.0059 16.2655 28.7212 15.1018 25.3664H20.6474ZM21.2592 25.3664H26.8048C25.6411 28.7212 23.6007 31.0059 21.2592 31.1901V25.3664ZM21.2592 24.7945V19.1938H27.8296C27.8036 21.2181 27.5041 23.1237 26.9923 24.7945H21.2592ZM28.4412 19.1938H34.0996C34.0498 21.2181 33.4774 23.1237 32.4985 24.7945H27.6121C28.1193 23.1088 28.4155 21.2081 28.4412 19.1938ZM28.4412 18.6219C28.4155 16.6077 28.1193 14.707 27.6121 13.0213H32.4988C33.4777 14.6918 34.0501 16.5974 34.0996 18.6219H28.4412ZM32.1406 12.4494H27.4295C26.565 9.90211 25.207 7.90817 23.5811 6.85873C27.1878 7.54501 30.2616 9.61616 32.1406 12.4494ZM18.3259 6.85873C16.6999 7.90817 15.3417 9.90211 14.4772 12.4494H9.76612C11.645 9.61616 14.7185 7.54501 18.3259 6.85873ZM9.76612 25.3664H14.4772C15.3417 27.9136 16.6996 29.9076 18.3259 30.957C14.7185 30.2707 11.645 28.1996 9.76612 25.3664ZM23.5808 30.957C25.2067 29.9076 26.5647 27.9136 27.4292 25.3664H32.1402C30.2616 28.1996 27.1878 30.2707 23.5808 30.957Z" fill="black"/>
<path d="M16.2634 33.2592C16.3617 33.1771 16.493 33.136 16.6572 33.136C16.8215 33.136 16.9528 33.1771 17.0511 33.2592C17.1506 33.3413 17.2004 33.4442 17.2004 33.568C17.2004 33.6942 17.1512 33.7978 17.0529 33.8787C16.9546 33.9596 16.8227 34 16.6572 34C16.493 34 16.361 33.9589 16.2615 33.8768C16.1632 33.7947 16.114 33.6918 16.114 33.568C16.114 33.4442 16.1638 33.3413 16.2634 33.2592ZM16.4052 33.7721C16.4674 33.826 16.5514 33.8529 16.6572 33.8529C16.7617 33.8529 16.8451 33.826 16.9073 33.7721C16.9708 33.7181 17.0025 33.6501 17.0025 33.568C17.0025 33.4847 16.9714 33.4167 16.9092 33.364C16.847 33.31 16.763 33.2831 16.6572 33.2831C16.5502 33.2831 16.4656 33.31 16.4034 33.364C16.3424 33.4167 16.3119 33.4847 16.3119 33.568C16.3119 33.6501 16.343 33.7181 16.4052 33.7721Z" fill="black"/>
<path d="M17.3898 33.1544V33.0184C17.3898 32.9301 17.4073 32.8719 17.4421 32.8437C17.4782 32.8143 17.5441 32.7996 17.64 32.7996H17.9162V32.9577H17.64C17.6163 32.9577 17.6001 32.962 17.5914 32.9706C17.584 32.9792 17.5802 32.9951 17.5802 33.0184V33.1544H17.9162V33.3107H17.5802V33.9816H17.3898V33.3107H17.233V33.1544H17.3898Z" fill="black"/>
<path d="M18.7419 32.9485C18.8738 32.837 19.0499 32.7812 19.2701 32.7812C19.3759 32.7812 19.4705 32.7941 19.5538 32.8198C19.6384 32.8456 19.7025 32.875 19.7461 32.9081C19.7896 32.9399 19.8264 32.9773 19.8562 33.0202C19.8873 33.0631 19.9066 33.095 19.9141 33.1158C19.9228 33.1366 19.929 33.155 19.9327 33.1709V33.1728H19.7237C19.7212 33.1667 19.7175 33.1587 19.7125 33.1489C19.7088 33.1379 19.6957 33.1195 19.6733 33.0937C19.6509 33.0668 19.6241 33.0435 19.593 33.0239C19.5632 33.0031 19.5196 32.9847 19.4624 32.9687C19.4051 32.9516 19.341 32.943 19.2701 32.943C19.1083 32.943 18.9808 32.9853 18.8875 33.0698C18.7954 33.1532 18.7493 33.2604 18.7493 33.3915C18.7493 33.5202 18.7966 33.6268 18.8912 33.7114C18.9858 33.796 19.1121 33.8382 19.2701 33.8382C19.341 33.8382 19.4051 33.8303 19.4624 33.8143C19.5196 33.7984 19.5632 33.7794 19.593 33.7574C19.6241 33.7353 19.6496 33.7132 19.6696 33.6912C19.6907 33.6679 19.7044 33.6483 19.7106 33.6323L19.72 33.6085H19.9271C19.9247 33.6219 19.9203 33.6373 19.9141 33.6544C19.9091 33.6716 19.8917 33.7028 19.8618 33.7482C19.8319 33.7935 19.7952 33.8333 19.7517 33.8676C19.7094 33.9007 19.6453 33.9314 19.5594 33.9596C19.4748 33.9865 19.3784 34 19.2701 34C19.0461 34 18.8688 33.9449 18.7381 33.8346C18.6075 33.723 18.5421 33.5754 18.5421 33.3915C18.5421 33.2089 18.6087 33.0613 18.7419 32.9485Z" fill="black"/>
<path d="M20.056 33.9816V32.7996H20.2501V33.3051C20.3211 33.1936 20.4324 33.1372 20.5843 33.136C20.588 33.136 20.5917 33.136 20.5955 33.136C20.8929 33.136 21.0416 33.272 21.0416 33.5441V33.9816H20.8493V33.5441C20.8493 33.3725 20.756 33.2855 20.5693 33.2831C20.466 33.2831 20.387 33.3107 20.3323 33.3658C20.2775 33.4197 20.2501 33.4951 20.2501 33.5919V33.9816H20.056Z" fill="black"/>
<path d="M21.2831 33.2555C21.3727 33.1758 21.4966 33.136 21.6546 33.136C21.8251 33.136 21.9508 33.1795 22.0316 33.2665C22.1138 33.3523 22.1548 33.4534 22.1548 33.5698C22.1548 33.5882 22.1542 33.6072 22.153 33.6268H21.3373C21.3447 33.6955 21.3765 33.7506 21.4325 33.7923C21.4897 33.8339 21.565 33.8548 21.6583 33.8548C21.7031 33.8548 21.7436 33.8505 21.7797 33.8419C21.817 33.8333 21.845 33.8229 21.8637 33.8107C21.8836 33.7984 21.8997 33.7862 21.9122 33.7739C21.9259 33.7604 21.9346 33.7494 21.9383 33.7408L21.9439 33.7279H22.1399C22.1387 33.7353 22.1356 33.7451 22.1306 33.7574C22.1268 33.7696 22.1138 33.7917 22.0914 33.8235C22.069 33.8542 22.0416 33.8817 22.0092 33.9063C21.9781 33.9295 21.9309 33.951 21.8674 33.9706C21.8052 33.9902 21.7349 34 21.6565 34C21.5022 34 21.3783 33.9614 21.285 33.8842C21.1929 33.8058 21.1469 33.701 21.1469 33.5698C21.1469 33.4412 21.1923 33.3364 21.2831 33.2555ZM21.9663 33.4945C21.9663 33.4332 21.9383 33.3823 21.8823 33.3419C21.8263 33.3015 21.751 33.2812 21.6565 33.2812C21.5619 33.2812 21.4872 33.3021 21.4325 33.3437C21.3777 33.3854 21.346 33.4357 21.3373 33.4945H21.9663Z" fill="black"/>
<path d="M22.2688 33.9816V33.1544H22.4536V33.3198C22.5196 33.1985 22.6335 33.1372 22.7952 33.136C22.799 33.136 22.8027 33.136 22.8064 33.136C23.1051 33.136 23.2544 33.272 23.2544 33.5441V33.9816H23.0603V33.5441C23.0603 33.3725 22.9676 33.2855 22.7822 33.2831C22.6776 33.2831 22.598 33.31 22.5432 33.364C22.4897 33.4179 22.463 33.4939 22.463 33.5919V33.9816H22.2688Z" fill="black"/>
<path d="M23.3954 33.9816V33.1544H23.5802V33.3198C23.6461 33.1985 23.76 33.1372 23.9217 33.136C23.9255 33.136 23.9292 33.136 23.9329 33.136C24.2316 33.136 24.3809 33.272 24.3809 33.5441V33.9816H24.1868V33.5441C24.1868 33.3725 24.0941 33.2855 23.9087 33.2831C23.8041 33.2831 23.7245 33.31 23.6697 33.364C23.6162 33.4179 23.5895 33.4939 23.5895 33.5919V33.9816H23.3954Z" fill="black"/>
<path d="M24.5144 33.6838C24.5269 33.6605 24.5424 33.6403 24.5611 33.6232C24.581 33.6048 24.6065 33.5882 24.6376 33.5735C24.67 33.5576 24.7004 33.5447 24.7291 33.5349C24.7577 33.5239 24.7925 33.5141 24.8336 33.5055C24.8747 33.4969 24.9095 33.4902 24.9381 33.4853C24.9667 33.4804 25.0022 33.4761 25.0445 33.4724C25.0868 33.4675 25.1179 33.4645 25.1378 33.4632C25.159 33.462 25.1864 33.4608 25.22 33.4596C25.2536 33.4571 25.2722 33.4559 25.276 33.4559V33.454C25.276 33.3339 25.1851 33.2739 25.0035 33.2739C24.9574 33.2739 24.917 33.2782 24.8821 33.2868C24.8473 33.2953 24.8218 33.3058 24.8056 33.318C24.7894 33.329 24.7764 33.3407 24.7664 33.3529C24.7564 33.364 24.7502 33.3738 24.7477 33.3823L24.7459 33.3952H24.5461C24.5474 33.3854 24.5499 33.3744 24.5536 33.3621C24.5573 33.3486 24.5685 33.3278 24.5872 33.2996C24.6071 33.2702 24.632 33.2445 24.6619 33.2224C24.6917 33.2004 24.7365 33.1808 24.7963 33.1636C24.8572 33.1452 24.9269 33.136 25.0053 33.136C25.1546 33.136 25.2685 33.1636 25.3469 33.2187C25.4265 33.2727 25.4664 33.3505 25.4664 33.4522V33.7665C25.4664 33.7886 25.4695 33.8039 25.4757 33.8125C25.4832 33.8199 25.4969 33.8235 25.5168 33.8235H25.5728V33.9816H25.5168C25.4384 33.9816 25.3817 33.9718 25.3469 33.9522C25.3121 33.9314 25.2903 33.8946 25.2816 33.8419C25.1895 33.9473 25.047 34 24.8541 34C24.7334 34 24.6432 33.9786 24.5835 33.9357C24.5237 33.8915 24.4939 33.8339 24.4939 33.7629C24.4939 33.7347 24.5007 33.7083 24.5144 33.6838ZM24.7496 33.8346C24.7844 33.8517 24.8292 33.8609 24.884 33.8621C24.8865 33.8621 24.889 33.8621 24.8915 33.8621C24.9823 33.8621 25.0688 33.8419 25.1509 33.8015C25.233 33.761 25.2747 33.7065 25.276 33.6379V33.5772C24.8927 33.5944 24.6998 33.6556 24.6973 33.761C24.6973 33.7623 24.6973 33.7635 24.6973 33.7647C24.6973 33.7941 24.7148 33.8174 24.7496 33.8346Z" fill="black"/>
<path d="M25.9089 33.1544V33.9816H25.7166V33.1544H25.9089ZM25.6868 32.9007C25.6868 32.8664 25.6986 32.837 25.7222 32.8125C25.7471 32.788 25.7763 32.7757 25.8099 32.7757C25.846 32.7757 25.8759 32.788 25.8995 32.8125C25.9244 32.837 25.9369 32.8664 25.9369 32.9007C25.9369 32.9338 25.9244 32.962 25.8995 32.9853C25.8747 33.0086 25.8448 33.0202 25.8099 33.0202C25.7763 33.0202 25.7471 33.0086 25.7222 32.9853C25.6986 32.962 25.6868 32.9338 25.6868 32.9007Z" fill="black"/>
</svg>
