<?xml version="1.0" encoding="iso-8859-1"?>
<!-- Generator: Adobe Illustrator 27.0.0, SVG Export Plug-In . SVG Version: 6.00 Build 0)  -->
<svg version="1.1" baseProfile="basic" xmlns="http://www.w3.org/2000/svg" xmlns:xlink="http://www.w3.org/1999/xlink" x="0px"
	 y="0px" viewBox="0 0 64 64" xml:space="preserve">
<g id="Layer_1">
	<g>
		<g>
			<g>
				<path d="M49,4H19c-3.85,0-7,3.15-7,7v42c0,3.85,3.15,7,7,7h30c3.85,0,7-3.15,7-7V11C56,7.15,52.85,4,49,4z M19,58
					c-2.77,0-5-2.23-5-5V11c0-2.77,2.23-5,5-5h30c2.77,0,5,2.23,5,5v42c0,2.77-2.23,5-5,5H19z"/>
			</g>
		</g>
	</g>
	<g>
		<g>
			<path d="M25.77,53.42c-0.585,0-1.167-0.152-1.681-0.441c-1.15-0.637-1.828-1.856-1.765-3.179l0.206-4.062l-3.239-2.482
				c-1.045-0.793-1.541-2.096-1.287-3.396c0.268-1.304,1.221-2.318,2.489-2.657l3.929-1.063l1.346-3.841
				c0.444-1.241,1.53-2.11,2.836-2.274c1.32-0.16,2.587,0.437,3.303,1.543l2.219,3.401l4.074,0.104
				c1.319,0.038,2.48,0.802,3.033,1.996c0.555,1.198,0.385,2.582-0.442,3.61l-2.555,3.163l1.166,3.9
				c0.378,1.272,0.01,2.618-0.961,3.513c-0.97,0.895-2.334,1.158-3.562,0.692l-3.808-1.45l-3.353,2.308
				C27.146,53.205,26.47,53.42,25.77,53.42z M29.017,32c-0.058,0-0.116,0.003-0.174,0.01c-0.544,0.068-1.004,0.436-1.191,0.957
				l-1.405,4.01c-0.189,0.523-0.614,0.912-1.139,1.049l-4.096,1.108c-0.535,0.144-0.935,0.572-1.047,1.119
				c-0.104,0.535,0.102,1.08,0.539,1.412l3.383,2.594c0.425,0.312,0.674,0.833,0.65,1.384l-0.215,4.256
				c-0.027,0.562,0.25,1.062,0.741,1.333c0.486,0.273,1.066,0.245,1.513-0.069l3.512-2.417c0.455-0.315,1.035-0.383,1.547-0.172
				l3.956,1.505c0.511,0.195,1.084,0.084,1.494-0.294c0.412-0.379,0.562-0.93,0.4-1.471l-1.218-4.077
				c-0.159-0.496-0.053-1.062,0.288-1.496l2.679-3.316c0.352-0.438,0.421-1.004,0.184-1.516c-0.231-0.5-0.719-0.82-1.272-0.836
				l-4.254-0.108c0,0,0,0-0.001,0c-0.524,0-1.034-0.28-1.34-0.748l-2.321-3.56C29.96,32.241,29.507,32,29.017,32z M30.899,50.433
				c0.005,0.002,0.009,0.004,0.014,0.005L30.899,50.433z M31.227,50.39l-0.003,0.002C31.224,50.391,31.225,50.391,31.227,50.39z
				 M22.674,45.85c0.004,0.003,0.008,0.006,0.013,0.01L22.674,45.85z M38.177,43.646l0.004,0.015
				C38.18,43.656,38.178,43.651,38.177,43.646z M24.594,36.093c-0.002,0-0.004,0.001-0.005,0.001L24.594,36.093z M33.917,34.964
				l0.021,0.001C33.931,34.964,33.923,34.964,33.917,34.964z"/>
		</g>
	</g>
	<g>
		<g>
			<path d="M43.25,26.85c-0.985,0-1.91-0.486-2.473-1.301l-1.057-1.551l-1.874-0.008c-1.143,0-2.173-0.643-2.683-1.678
				c-0.5-1.028-0.38-2.231,0.308-3.145l1.155-1.484l-0.578-1.786c-0.346-1.097-0.054-2.271,0.761-3.071
				c0.849-0.805,2.036-1.055,3.11-0.667l1.752,0.624l1.525-1.096c0.933-0.679,2.143-0.764,3.156-0.219
				c1.013,0.536,1.627,1.582,1.597,2.727l-0.055,1.877l1.513,1.1c0.929,0.688,1.381,1.812,1.188,2.938
				c-0.194,1.132-1.002,2.04-2.111,2.369l-1.797,0.523l-0.577,1.776c-0.36,1.096-1.29,1.876-2.428,2.041
				C43.503,26.839,43.37,26.85,43.25,26.85z M38.896,13.979c-0.254,0-0.501,0.099-0.699,0.287c-0.266,0.261-0.362,0.648-0.244,1.022
				l0.901,2.787l-1.795,2.308c-0.225,0.299-0.267,0.705-0.1,1.05c0.168,0.341,0.511,0.557,0.891,0.557l2.93,0.012l1.646,2.415
				c0.222,0.322,0.579,0.454,1.017,0.418c0.341-0.051,0.645-0.307,0.768-0.678l0.901-2.778l2.809-0.819
				c0.374-0.111,0.639-0.406,0.704-0.788l0,0c0.067-0.39-0.079-0.75-0.4-0.988l-2.359-1.715l0.086-2.928
				c0.01-0.377-0.197-0.727-0.539-0.907c-0.334-0.18-0.733-0.149-1.043,0.075l-2.38,1.709l-2.744-0.976
				C39.129,14,39.012,13.979,38.896,13.979z"/>
		</g>
	</g>
	<g>
		<path d="M54.425,38.833c-13.132-9.217-26.884-14.562-42.042-16.34l0.233-1.986c15.496,1.818,29.547,7.277,42.958,16.689
			L54.425,38.833z"/>
	</g>
	<g>
		<g>
			<path d="M9,47c0-0.552-0.448-1-1-1H6c-0.552,0-1,0.448-1,1s0.448,1,1,1h2C8.552,48,9,47.552,9,47z M5,52c0,0.552,0.448,1,1,1h2
				c0.552,0,1-0.448,1-1s-0.448-1-1-1H6C5.448,51,5,51.448,5,52z M9,32c0-0.552-0.448-1-1-1H6c-0.552,0-1,0.448-1,1
				c0,0.552,0.448,1,1,1h2C8.552,33,9,32.552,9,32z M9,27c0-0.552-0.448-1-1-1H6c-0.552,0-1,0.448-1,1s0.448,1,1,1h2
				C8.552,28,9,27.552,9,27z M9,22c0-0.552-0.448-1-1-1H6c-0.552,0-1,0.448-1,1s0.448,1,1,1h2C8.552,23,9,22.552,9,22z M9,17
				c0-0.552-0.448-1-1-1H6c-0.552,0-1,0.448-1,1s0.448,1,1,1h2C8.552,18,9,17.552,9,17z M5,12c0,0.552,0.448,1,1,1h2
				c0.552,0,1-0.448,1-1s-0.448-1-1-1H6C5.448,11,5,11.448,5,12z M9,42c0-0.552-0.448-1-1-1H6c-0.552,0-1,0.448-1,1s0.448,1,1,1h2
				C8.552,43,9,42.552,9,42z M9,37c0-0.552-0.448-1-1-1H6c-0.552,0-1,0.448-1,1s0.448,1,1,1h2C8.552,38,9,37.552,9,37z"/>
		</g>
	</g>
</g>
<g id="Layer_2">
</g>
<g id="&#x421;&#x43B;&#x43E;&#x439;_1">
</g>
<g id="&#x421;&#x43B;&#x43E;&#x439;_4">
</g>
</svg>